<svg xmlns="http://www.w3.org/2000/svg" width="100mm" height="100mm" viewBox="0 0 283.46 283.46"><defs><style>.cls-1{fill:#fff;}</style></defs><title>B_Logo_XS_N_1C</title><g id="Frame"><path class="cls-1" d="M0,0V283.46H283.46V0ZM277.8,277.8H5.67V5.67H277.8Z" transform="translate(0)"/></g><g id="B"><path class="cls-1" d="M147,198H121.25a1.4,1.4,0,0,1-1.45-1.46V155.74a1.29,1.29,0,0,1,1.45-1.46H147c15.8,0,24.55,9,24.55,21.87,0,13.12-8.75,21.87-24.55,21.87M144.59,84.31c15.31,0,23.82,8.26,23.82,20.89s-8.51,21.14-23.82,21.14H121.25a1.28,1.28,0,0,1-1.45-1.45V85.77a1.29,1.29,0,0,1,1.45-1.46Zm35.48,53.45c12.16-7.77,19.45-19.92,19.45-35.71,0-26-18-45.92-51-45.92H93.06A2.81,2.81,0,0,0,90.14,59V223.29a2.81,2.81,0,0,0,2.92,2.91h57.6c34,0,52-20.65,52-47.86,0-17.74-8.51-31.1-22.61-38.63-1-.73-1-1.46,0-2" transform="translate(0)"/></g></svg>