<svg xmlns="http://www.w3.org/2000/svg" width="100mm" height="100mm" viewBox="0 0 283.46 283.46"><defs><style>.cls-1{fill:#1d1d1b;}</style></defs><title>B_Logo_Baer_PT_1C</title><g id="Frame"><path class="cls-1" d="M0,0V283.46H283.46V0ZM277.8,277.8H5.67V5.67H277.8Z" transform="translate(0)"/></g><g id="Bär"><path class="cls-1" d="M183.38,222.16s-4.95-32.87-7.3-46.73l1-.21a3.05,3.05,0,0,0,2-4.53C173.52,161,171.51,149,171.51,137A64.34,64.34,0,0,1,175,116c.13-.38.26-.75.4-1.13l.28-.81a62,62,0,0,0,5-18.43,52.39,52.39,0,0,0-4.1-25.28l-.45-.8a6.59,6.59,0,0,0,.86-8c-1.84-3.16-5.6-4.42-8.41-2.8-.29.17-1,.66-1.3.89-.51-.38-.81-.57-.81-.57s-.79-.52-1.47-.87c0,0-.26-.13-.26-.14a22.85,22.85,0,0,0-9.37-1.95,23.68,23.68,0,0,0-4.8.49,23.27,23.27,0,0,0-9.1,4.08,13.57,13.57,0,0,1-2.88.55l-3.8.18c-1.79.07-3.83,0-3.83,0A1.62,1.62,0,0,0,129.4,63c0,.08.59,5.3.59,5.32a4.27,4.27,0,0,0,1.79,3.25l.13.09a1.42,1.42,0,0,1,.6.62,5.87,5.87,0,0,0,1.84,2.62c.26.16.67.08.74-.21.73-2.85,2.43.22,5.66-1.53.83-.45,1.27,1.57.92,2.45l-.3.76a5.1,5.1,0,0,1-4,3.18c-1.43.21-2.25.35-2.23.55.17,1.61,0,3,1.62,4a3.94,3.94,0,0,0,.71.31c2.51.66,9.84,3.47.53,14.46a23.43,23.43,0,0,0-1.57,2,5.25,5.25,0,0,0-.51.89l-.2.39-28-10.47a6.41,6.41,0,0,1-2.45-2l-2.76-4.74a7.27,7.27,0,0,0-6.18-3.51,24.92,24.92,0,0,0-3.9,0c-.83,0-1.31.24-1.49.73a5.07,5.07,0,0,0,.61,3.51l2.4,4.41c.21.31,3.24,7.09,3.24,7.09a5.14,5.14,0,0,0,1.51,2.14L127.43,121,97.14,136.11a3.72,3.72,0,0,1-2.85.29l-2.71-.82c-5-2.21-8.69-.67-10.88,1.16,0,0-.85.81-.85.81a1.44,1.44,0,0,0,.41,2.4s4.79,2.81,5.84,3.53l7.44,4.41a5.45,5.45,0,0,0,3.83.62l29.41-5.93a101.78,101.78,0,0,0,3.54,20.62,53,53,0,0,0-15,28.19c-1.42,7.94-1,15.13,1.21,23.59-4.11.23-8.07.83-11.36,3.12-3.14,2.18-3.78,6.06-3.8,8l23,.05h1.94a3.29,3.29,0,0,0,3-2.44,15.48,15.48,0,0,0,.43-2.38,51.59,51.59,0,0,1,5.39-17.6,58.19,58.19,0,0,1,9.15-12.65,91.22,91.22,0,0,0,26,24.1,25.58,25.58,0,0,0-9.56,2.57,9.83,9.83,0,0,0-4.76,8.46h23.79a3.68,3.68,0,0,0,3.49-2.49,3.9,3.9,0,0,0,.12-.46,2,2,0,0,0,0-.34A3.14,3.14,0,0,0,183.38,222.16Z" transform="translate(0)"/></g></svg>